<?xml version="1.0" encoding="UTF-8" standalone="no"?><svg xmlns="http://www.w3.org/2000/svg" xmlns:xlink="http://www.w3.org/1999/xlink" contentScriptType="application/ecmascript" contentStyleType="text/css" height="1027px" preserveAspectRatio="none" style="width:1038px;height:1027px;" version="1.1" viewBox="0 0 1038 1027" width="1038px" zoomAndPan="magnify"><defs><filter height="300%" id="f1fq83k9nmfoo2" width="300%" x="-1" y="-1"><feGaussianBlur result="blurOut" stdDeviation="2.0"/><feColorMatrix in="blurOut" result="blurOut2" type="matrix" values="0 0 0 0 0 0 0 0 0 0 0 0 0 0 0 0 0 0 .4 0"/><feOffset dx="4.0" dy="4.0" in="blurOut2" result="blurOut3"/><feBlend in="SourceGraphic" in2="blurOut3" mode="normal"/></filter></defs><g><!--MD5=[f9a29335b499db729be669fd1bd54958]
class Account--><rect fill="#FEFECE" filter="url(#f1fq83k9nmfoo2)" height="176.0469" id="Account" style="stroke: #A80036; stroke-width: 1.5;" width="210" x="254.5" y="8"/><ellipse cx="329.75" cy="24" fill="#ADD1B2" rx="11" ry="11" style="stroke: #A80036; stroke-width: 1.0;"/><path d="M333.8594,30 L326.1406,30 L326.1406,17.6094 L333.8594,17.6094 L333.8594,19.7656 L328.5938,19.7656 L328.5938,22.4375 L333.3594,22.4375 L333.3594,24.5938 L328.5938,24.5938 L328.5938,27.8438 L333.8594,27.8438 L333.8594,30 Z "/><text fill="#000000" font-family="sans-serif" font-size="12" lengthAdjust="spacingAndGlyphs" textLength="51" x="350.25" y="28.1543">Account</text><line style="stroke: #A80036; stroke-width: 1.5;" x1="255.5" x2="463.5" y1="40" y2="40"/><ellipse cx="265.5" cy="51" fill="none" rx="3" ry="3" style="stroke: #038048; stroke-width: 1.0;"/><text fill="#000000" font-family="sans-serif" font-size="11" lengthAdjust="spacingAndGlyphs" textLength="52" x="274.5" y="54.2104">id: String</text><ellipse cx="265.5" cy="63.8047" fill="none" rx="3" ry="3" style="stroke: #038048; stroke-width: 1.0;"/><text fill="#000000" font-family="sans-serif" font-size="11" lengthAdjust="spacingAndGlyphs" textLength="78" x="274.5" y="67.0151">userId: String</text><ellipse cx="265.5" cy="76.6094" fill="none" rx="3" ry="3" style="stroke: #038048; stroke-width: 1.0;"/><text fill="#000000" font-family="sans-serif" font-size="11" lengthAdjust="spacingAndGlyphs" textLength="116" x="274.5" y="79.8198">providerType: String</text><ellipse cx="265.5" cy="89.4141" fill="none" rx="3" ry="3" style="stroke: #038048; stroke-width: 1.0;"/><text fill="#000000" font-family="sans-serif" font-size="11" lengthAdjust="spacingAndGlyphs" textLength="99" x="274.5" y="92.6245">providerId: String</text><ellipse cx="265.5" cy="102.2188" fill="none" rx="3" ry="3" style="stroke: #038048; stroke-width: 1.0;"/><text fill="#000000" font-family="sans-serif" font-size="11" lengthAdjust="spacingAndGlyphs" textLength="143" x="274.5" y="105.4292">providerAccountId: String</text><ellipse cx="265.5" cy="115.0234" fill="none" rx="3" ry="3" style="stroke: #038048; stroke-width: 1.0;"/><text fill="#000000" font-family="sans-serif" font-size="11" lengthAdjust="spacingAndGlyphs" textLength="124" x="274.5" y="118.2339">refreshToken: String?</text><ellipse cx="265.5" cy="127.8281" fill="none" rx="3" ry="3" style="stroke: #038048; stroke-width: 1.0;"/><text fill="#000000" font-family="sans-serif" font-size="11" lengthAdjust="spacingAndGlyphs" textLength="122" x="274.5" y="131.0386">accessToken: String?</text><ellipse cx="265.5" cy="140.6328" fill="none" rx="3" ry="3" style="stroke: #038048; stroke-width: 1.0;"/><text fill="#000000" font-family="sans-serif" font-size="11" lengthAdjust="spacingAndGlyphs" textLength="184" x="274.5" y="143.8433">accessTokenExpires: DateTime?</text><ellipse cx="265.5" cy="153.4375" fill="none" rx="3" ry="3" style="stroke: #038048; stroke-width: 1.0;"/><text fill="#000000" font-family="sans-serif" font-size="11" lengthAdjust="spacingAndGlyphs" textLength="116" x="274.5" y="156.6479">createdAt: DateTime</text><ellipse cx="265.5" cy="166.2422" fill="none" rx="3" ry="3" style="stroke: #038048; stroke-width: 1.0;"/><text fill="#000000" font-family="sans-serif" font-size="11" lengthAdjust="spacingAndGlyphs" textLength="119" x="274.5" y="169.4526">updatedAt: DateTime</text><line style="stroke: #A80036; stroke-width: 1.5;" x1="255.5" x2="463.5" y1="176.0469" y2="176.0469"/><!--MD5=[2ca1536628238a7dc78c5d90808014f9]
class Session--><rect fill="#FEFECE" filter="url(#f1fq83k9nmfoo2)" height="137.6328" id="Session" style="stroke: #A80036; stroke-width: 1.5;" width="147" x="6" y="488"/><ellipse cx="50.75" cy="504" fill="#ADD1B2" rx="11" ry="11" style="stroke: #A80036; stroke-width: 1.0;"/><path d="M54.8594,510 L47.1406,510 L47.1406,497.6094 L54.8594,497.6094 L54.8594,499.7656 L49.5938,499.7656 L49.5938,502.4375 L54.3594,502.4375 L54.3594,504.5938 L49.5938,504.5938 L49.5938,507.8438 L54.8594,507.8438 L54.8594,510 Z "/><text fill="#000000" font-family="sans-serif" font-size="12" lengthAdjust="spacingAndGlyphs" textLength="49" x="71.25" y="508.1543">Session</text><line style="stroke: #A80036; stroke-width: 1.5;" x1="7" x2="152" y1="520" y2="520"/><ellipse cx="17" cy="531" fill="none" rx="3" ry="3" style="stroke: #038048; stroke-width: 1.0;"/><text fill="#000000" font-family="sans-serif" font-size="11" lengthAdjust="spacingAndGlyphs" textLength="52" x="26" y="534.2104">id: String</text><ellipse cx="17" cy="543.8047" fill="none" rx="3" ry="3" style="stroke: #038048; stroke-width: 1.0;"/><text fill="#000000" font-family="sans-serif" font-size="11" lengthAdjust="spacingAndGlyphs" textLength="78" x="26" y="547.0151">userId: String</text><ellipse cx="17" cy="556.6094" fill="none" rx="3" ry="3" style="stroke: #038048; stroke-width: 1.0;"/><text fill="#000000" font-family="sans-serif" font-size="11" lengthAdjust="spacingAndGlyphs" textLength="104" x="26" y="559.8198">expires: DateTime</text><ellipse cx="17" cy="569.4141" fill="none" rx="3" ry="3" style="stroke: #038048; stroke-width: 1.0;"/><text fill="#000000" font-family="sans-serif" font-size="11" lengthAdjust="spacingAndGlyphs" textLength="121" x="26" y="572.6245">sessionToken: String</text><ellipse cx="17" cy="582.2188" fill="none" rx="3" ry="3" style="stroke: #038048; stroke-width: 1.0;"/><text fill="#000000" font-family="sans-serif" font-size="11" lengthAdjust="spacingAndGlyphs" textLength="116" x="26" y="585.4292">accessToken: String</text><ellipse cx="17" cy="595.0234" fill="none" rx="3" ry="3" style="stroke: #038048; stroke-width: 1.0;"/><text fill="#000000" font-family="sans-serif" font-size="11" lengthAdjust="spacingAndGlyphs" textLength="116" x="26" y="598.2339">createdAt: DateTime</text><ellipse cx="17" cy="607.8281" fill="none" rx="3" ry="3" style="stroke: #038048; stroke-width: 1.0;"/><text fill="#000000" font-family="sans-serif" font-size="11" lengthAdjust="spacingAndGlyphs" textLength="119" x="26" y="611.0386">updatedAt: DateTime</text><line style="stroke: #A80036; stroke-width: 1.5;" x1="7" x2="152" y1="617.6328" y2="617.6328"/><!--MD5=[3fd616f346a44cd59a91eb10b19e157c]
class User--><rect fill="#FEFECE" filter="url(#f1fq83k9nmfoo2)" height="150.4375" id="User" style="stroke: #A80036; stroke-width: 1.5;" width="168" x="340.5" y="261"/><ellipse cx="405.75" cy="277" fill="#ADD1B2" rx="11" ry="11" style="stroke: #A80036; stroke-width: 1.0;"/><path d="M409.8594,283 L402.1406,283 L402.1406,270.6094 L409.8594,270.6094 L409.8594,272.7656 L404.5938,272.7656 L404.5938,275.4375 L409.3594,275.4375 L409.3594,277.5938 L404.5938,277.5938 L404.5938,280.8438 L409.8594,280.8438 L409.8594,283 Z "/><text fill="#000000" font-family="sans-serif" font-size="12" lengthAdjust="spacingAndGlyphs" textLength="29" x="426.25" y="281.1543">User</text><line style="stroke: #A80036; stroke-width: 1.5;" x1="341.5" x2="507.5" y1="293" y2="293"/><ellipse cx="351.5" cy="304" fill="none" rx="3" ry="3" style="stroke: #038048; stroke-width: 1.0;"/><text fill="#000000" font-family="sans-serif" font-size="11" lengthAdjust="spacingAndGlyphs" textLength="52" x="360.5" y="307.2104">id: String</text><ellipse cx="351.5" cy="316.8047" fill="none" rx="3" ry="3" style="stroke: #038048; stroke-width: 1.0;"/><text fill="#000000" font-family="sans-serif" font-size="11" lengthAdjust="spacingAndGlyphs" textLength="80" x="360.5" y="320.0151">name: String?</text><ellipse cx="351.5" cy="329.6094" fill="none" rx="3" ry="3" style="stroke: #038048; stroke-width: 1.0;"/><text fill="#000000" font-family="sans-serif" font-size="11" lengthAdjust="spacingAndGlyphs" textLength="79" x="360.5" y="332.8198">email: String?</text><ellipse cx="351.5" cy="342.4141" fill="none" rx="3" ry="3" style="stroke: #038048; stroke-width: 1.0;"/><text fill="#000000" font-family="sans-serif" font-size="11" lengthAdjust="spacingAndGlyphs" textLength="142" x="360.5" y="345.6245">emailVerified: DateTime?</text><ellipse cx="351.5" cy="355.2188" fill="none" rx="3" ry="3" style="stroke: #038048; stroke-width: 1.0;"/><text fill="#000000" font-family="sans-serif" font-size="11" lengthAdjust="spacingAndGlyphs" textLength="83" x="360.5" y="358.4292">image: String?</text><ellipse cx="351.5" cy="368.0234" fill="none" rx="3" ry="3" style="stroke: #038048; stroke-width: 1.0;"/><text fill="#000000" font-family="sans-serif" font-size="11" lengthAdjust="spacingAndGlyphs" textLength="111" x="360.5" y="371.2339">description: String?</text><ellipse cx="351.5" cy="380.8281" fill="none" rx="3" ry="3" style="stroke: #038048; stroke-width: 1.0;"/><text fill="#000000" font-family="sans-serif" font-size="11" lengthAdjust="spacingAndGlyphs" textLength="116" x="360.5" y="384.0386">createdAt: DateTime</text><ellipse cx="351.5" cy="393.6328" fill="none" rx="3" ry="3" style="stroke: #038048; stroke-width: 1.0;"/><text fill="#000000" font-family="sans-serif" font-size="11" lengthAdjust="spacingAndGlyphs" textLength="119" x="360.5" y="396.8433">updatedAt: DateTime</text><line style="stroke: #A80036; stroke-width: 1.5;" x1="341.5" x2="507.5" y1="403.4375" y2="403.4375"/><!--MD5=[12e9a7494328c3f6828fda4b2a36dae0]
class Anime--><rect fill="#FEFECE" filter="url(#f1fq83k9nmfoo2)" height="112.0234" id="Anime" style="stroke: #A80036; stroke-width: 1.5;" width="157" x="541" y="703"/><ellipse cx="596.25" cy="719" fill="#ADD1B2" rx="11" ry="11" style="stroke: #A80036; stroke-width: 1.0;"/><path d="M600.3594,725 L592.6406,725 L592.6406,712.6094 L600.3594,712.6094 L600.3594,714.7656 L595.0938,714.7656 L595.0938,717.4375 L599.8594,717.4375 L599.8594,719.5938 L595.0938,719.5938 L595.0938,722.8438 L600.3594,722.8438 L600.3594,725 Z "/><text fill="#000000" font-family="sans-serif" font-size="12" lengthAdjust="spacingAndGlyphs" textLength="38" x="616.75" y="723.1543">Anime</text><line style="stroke: #A80036; stroke-width: 1.5;" x1="542" x2="697" y1="735" y2="735"/><ellipse cx="552" cy="746" fill="none" rx="3" ry="3" style="stroke: #038048; stroke-width: 1.0;"/><text fill="#000000" font-family="sans-serif" font-size="11" lengthAdjust="spacingAndGlyphs" textLength="52" x="561" y="749.2104">id: String</text><ellipse cx="552" cy="758.8047" fill="none" rx="3" ry="3" style="stroke: #038048; stroke-width: 1.0;"/><text fill="#000000" font-family="sans-serif" font-size="11" lengthAdjust="spacingAndGlyphs" textLength="63" x="561" y="762.0151">title: String</text><ellipse cx="552" cy="771.6094" fill="none" rx="3" ry="3" style="stroke: #038048; stroke-width: 1.0;"/><text fill="#000000" font-family="sans-serif" font-size="11" lengthAdjust="spacingAndGlyphs" textLength="111" x="561" y="774.8198">description: String?</text><ellipse cx="552" cy="784.4141" fill="none" rx="3" ry="3" style="stroke: #038048; stroke-width: 1.0;"/><text fill="#000000" font-family="sans-serif" font-size="11" lengthAdjust="spacingAndGlyphs" textLength="83" x="561" y="787.6245">image: String?</text><ellipse cx="552" cy="797.2188" fill="none" rx="3" ry="3" style="stroke: #038048; stroke-width: 1.0;"/><text fill="#000000" font-family="sans-serif" font-size="11" lengthAdjust="spacingAndGlyphs" textLength="131" x="561" y="800.4292">releaseDate: DateTime</text><line style="stroke: #A80036; stroke-width: 1.5;" x1="542" x2="697" y1="807.0234" y2="807.0234"/><!--MD5=[042fa140da40c49659127f611bcff931]
class Comment--><rect fill="#FEFECE" filter="url(#f1fq83k9nmfoo2)" height="124.8281" id="Comment" style="stroke: #A80036; stroke-width: 1.5;" width="145" x="209" y="892"/><ellipse cx="248.3" cy="908" fill="#ADD1B2" rx="11" ry="11" style="stroke: #A80036; stroke-width: 1.0;"/><path d="M252.4094,914 L244.6906,914 L244.6906,901.6094 L252.4094,901.6094 L252.4094,903.7656 L247.1438,903.7656 L247.1438,906.4375 L251.9094,906.4375 L251.9094,908.5938 L247.1438,908.5938 L247.1438,911.8438 L252.4094,911.8438 L252.4094,914 Z "/><text fill="#000000" font-family="sans-serif" font-size="12" lengthAdjust="spacingAndGlyphs" textLength="59" x="267.7" y="912.1543">Comment</text><line style="stroke: #A80036; stroke-width: 1.5;" x1="210" x2="353" y1="924" y2="924"/><ellipse cx="220" cy="935" fill="none" rx="3" ry="3" style="stroke: #038048; stroke-width: 1.0;"/><text fill="#000000" font-family="sans-serif" font-size="11" lengthAdjust="spacingAndGlyphs" textLength="52" x="229" y="938.2104">id: String</text><ellipse cx="220" cy="947.8047" fill="none" rx="3" ry="3" style="stroke: #038048; stroke-width: 1.0;"/><text fill="#000000" font-family="sans-serif" font-size="11" lengthAdjust="spacingAndGlyphs" textLength="84" x="229" y="951.0151">content: String</text><ellipse cx="220" cy="960.6094" fill="none" rx="3" ry="3" style="stroke: #038048; stroke-width: 1.0;"/><text fill="#000000" font-family="sans-serif" font-size="11" lengthAdjust="spacingAndGlyphs" textLength="116" x="229" y="963.8198">createdAt: DateTime</text><ellipse cx="220" cy="973.4141" fill="none" rx="3" ry="3" style="stroke: #038048; stroke-width: 1.0;"/><text fill="#000000" font-family="sans-serif" font-size="11" lengthAdjust="spacingAndGlyphs" textLength="119" x="229" y="976.6245">updatedAt: DateTime</text><ellipse cx="220" cy="986.2188" fill="none" rx="3" ry="3" style="stroke: #038048; stroke-width: 1.0;"/><text fill="#000000" font-family="sans-serif" font-size="11" lengthAdjust="spacingAndGlyphs" textLength="78" x="229" y="989.4292">userId: String</text><ellipse cx="220" cy="999.0234" fill="none" rx="3" ry="3" style="stroke: #038048; stroke-width: 1.0;"/><text fill="#000000" font-family="sans-serif" font-size="11" lengthAdjust="spacingAndGlyphs" textLength="87" x="229" y="1002.2339">animeId: String</text><line style="stroke: #A80036; stroke-width: 1.5;" x1="210" x2="353" y1="1008.8281" y2="1008.8281"/><!--MD5=[378e3e2ca7e24a99f4479cd893fbde36]
class Like--><rect fill="#FEFECE" filter="url(#f1fq83k9nmfoo2)" height="99.2188" id="Like" style="stroke: #A80036; stroke-width: 1.5;" width="142" x="834.5" y="905"/><ellipse cx="889.25" cy="921" fill="#ADD1B2" rx="11" ry="11" style="stroke: #A80036; stroke-width: 1.0;"/><path d="M893.3594,927 L885.6406,927 L885.6406,914.6094 L893.3594,914.6094 L893.3594,916.7656 L888.0938,916.7656 L888.0938,919.4375 L892.8594,919.4375 L892.8594,921.5938 L888.0938,921.5938 L888.0938,924.8438 L893.3594,924.8438 L893.3594,927 Z "/><text fill="#000000" font-family="sans-serif" font-size="12" lengthAdjust="spacingAndGlyphs" textLength="24" x="909.75" y="925.1543">Like</text><line style="stroke: #A80036; stroke-width: 1.5;" x1="835.5" x2="975.5" y1="937" y2="937"/><ellipse cx="845.5" cy="948" fill="none" rx="3" ry="3" style="stroke: #038048; stroke-width: 1.0;"/><text fill="#000000" font-family="sans-serif" font-size="11" lengthAdjust="spacingAndGlyphs" textLength="52" x="854.5" y="951.2104">id: String</text><ellipse cx="845.5" cy="960.8047" fill="none" rx="3" ry="3" style="stroke: #038048; stroke-width: 1.0;"/><text fill="#000000" font-family="sans-serif" font-size="11" lengthAdjust="spacingAndGlyphs" textLength="78" x="854.5" y="964.0151">userId: String</text><ellipse cx="845.5" cy="973.6094" fill="none" rx="3" ry="3" style="stroke: #038048; stroke-width: 1.0;"/><text fill="#000000" font-family="sans-serif" font-size="11" lengthAdjust="spacingAndGlyphs" textLength="87" x="854.5" y="976.8198">animeId: String</text><ellipse cx="845.5" cy="986.4141" fill="none" rx="3" ry="3" style="stroke: #038048; stroke-width: 1.0;"/><text fill="#000000" font-family="sans-serif" font-size="11" lengthAdjust="spacingAndGlyphs" textLength="116" x="854.5" y="989.6245">createdAt: DateTime</text><line style="stroke: #A80036; stroke-width: 1.5;" x1="835.5" x2="975.5" y1="996.2188" y2="996.2188"/><!--MD5=[020003419320da856c0f851fe24bc8e8]
class Dislike--><rect fill="#FEFECE" filter="url(#f1fq83k9nmfoo2)" height="99.2188" id="Dislike" style="stroke: #A80036; stroke-width: 1.5;" width="142" x="473.5" y="905"/><ellipse cx="520.25" cy="921" fill="#ADD1B2" rx="11" ry="11" style="stroke: #A80036; stroke-width: 1.0;"/><path d="M524.3594,927 L516.6406,927 L516.6406,914.6094 L524.3594,914.6094 L524.3594,916.7656 L519.0938,916.7656 L519.0938,919.4375 L523.8594,919.4375 L523.8594,921.5938 L519.0938,921.5938 L519.0938,924.8438 L524.3594,924.8438 L524.3594,927 Z "/><text fill="#000000" font-family="sans-serif" font-size="12" lengthAdjust="spacingAndGlyphs" textLength="40" x="540.75" y="925.1543">Dislike</text><line style="stroke: #A80036; stroke-width: 1.5;" x1="474.5" x2="614.5" y1="937" y2="937"/><ellipse cx="484.5" cy="948" fill="none" rx="3" ry="3" style="stroke: #038048; stroke-width: 1.0;"/><text fill="#000000" font-family="sans-serif" font-size="11" lengthAdjust="spacingAndGlyphs" textLength="52" x="493.5" y="951.2104">id: String</text><ellipse cx="484.5" cy="960.8047" fill="none" rx="3" ry="3" style="stroke: #038048; stroke-width: 1.0;"/><text fill="#000000" font-family="sans-serif" font-size="11" lengthAdjust="spacingAndGlyphs" textLength="78" x="493.5" y="964.0151">userId: String</text><ellipse cx="484.5" cy="973.6094" fill="none" rx="3" ry="3" style="stroke: #038048; stroke-width: 1.0;"/><text fill="#000000" font-family="sans-serif" font-size="11" lengthAdjust="spacingAndGlyphs" textLength="87" x="493.5" y="976.8198">animeId: String</text><ellipse cx="484.5" cy="986.4141" fill="none" rx="3" ry="3" style="stroke: #038048; stroke-width: 1.0;"/><text fill="#000000" font-family="sans-serif" font-size="11" lengthAdjust="spacingAndGlyphs" textLength="116" x="493.5" y="989.6245">createdAt: DateTime</text><line style="stroke: #A80036; stroke-width: 1.5;" x1="474.5" x2="614.5" y1="996.2188" y2="996.2188"/><!--MD5=[f375b3d0fae4d15774812e930c824519]
class Genre--><rect fill="#FEFECE" filter="url(#f1fq83k9nmfoo2)" height="73.6094" id="Genre" style="stroke: #A80036; stroke-width: 1.5;" width="100" x="497.5" y="520"/><ellipse cx="526" cy="536" fill="#ADD1B2" rx="11" ry="11" style="stroke: #A80036; stroke-width: 1.0;"/><path d="M530.1094,542 L522.3906,542 L522.3906,529.6094 L530.1094,529.6094 L530.1094,531.7656 L524.8438,531.7656 L524.8438,534.4375 L529.6094,534.4375 L529.6094,536.5938 L524.8438,536.5938 L524.8438,539.8438 L530.1094,539.8438 L530.1094,542 Z "/><text fill="#000000" font-family="sans-serif" font-size="12" lengthAdjust="spacingAndGlyphs" textLength="38" x="543" y="540.1543">Genre</text><line style="stroke: #A80036; stroke-width: 1.5;" x1="498.5" x2="596.5" y1="552" y2="552"/><ellipse cx="508.5" cy="563" fill="none" rx="3" ry="3" style="stroke: #038048; stroke-width: 1.0;"/><text fill="#000000" font-family="sans-serif" font-size="11" lengthAdjust="spacingAndGlyphs" textLength="52" x="517.5" y="566.2104">id: String</text><ellipse cx="508.5" cy="575.8047" fill="none" rx="3" ry="3" style="stroke: #038048; stroke-width: 1.0;"/><text fill="#000000" font-family="sans-serif" font-size="11" lengthAdjust="spacingAndGlyphs" textLength="74" x="517.5" y="579.0151">name: String</text><line style="stroke: #A80036; stroke-width: 1.5;" x1="498.5" x2="596.5" y1="585.6094" y2="585.6094"/><!--MD5=[72da72827f728761aca11c1a0f4b9bbc]
class VerificationRequest--><rect fill="#FEFECE" filter="url(#f1fq83k9nmfoo2)" height="124.8281" id="VerificationRequest" style="stroke: #A80036; stroke-width: 1.5;" width="154" x="499.5" y="33.5"/><ellipse cx="514.5" cy="49.5" fill="#ADD1B2" rx="11" ry="11" style="stroke: #A80036; stroke-width: 1.0;"/><path d="M518.6094,55.5 L510.8906,55.5 L510.8906,43.1094 L518.6094,43.1094 L518.6094,45.2656 L513.3438,45.2656 L513.3438,47.9375 L518.1094,47.9375 L518.1094,50.0938 L513.3438,50.0938 L513.3438,53.3438 L518.6094,53.3438 L518.6094,55.5 Z "/><text fill="#000000" font-family="sans-serif" font-size="12" lengthAdjust="spacingAndGlyphs" textLength="122" x="528.5" y="53.6543">VerificationRequest</text><line style="stroke: #A80036; stroke-width: 1.5;" x1="500.5" x2="652.5" y1="65.5" y2="65.5"/><ellipse cx="510.5" cy="76.5" fill="none" rx="3" ry="3" style="stroke: #038048; stroke-width: 1.0;"/><text fill="#000000" font-family="sans-serif" font-size="11" lengthAdjust="spacingAndGlyphs" textLength="52" x="519.5" y="79.7104">id: String</text><ellipse cx="510.5" cy="89.3047" fill="none" rx="3" ry="3" style="stroke: #038048; stroke-width: 1.0;"/><text fill="#000000" font-family="sans-serif" font-size="11" lengthAdjust="spacingAndGlyphs" textLength="92" x="519.5" y="92.5151">identifier: String</text><ellipse cx="510.5" cy="102.1094" fill="none" rx="3" ry="3" style="stroke: #038048; stroke-width: 1.0;"/><text fill="#000000" font-family="sans-serif" font-size="11" lengthAdjust="spacingAndGlyphs" textLength="73" x="519.5" y="105.3198">token: String</text><ellipse cx="510.5" cy="114.9141" fill="none" rx="3" ry="3" style="stroke: #038048; stroke-width: 1.0;"/><text fill="#000000" font-family="sans-serif" font-size="11" lengthAdjust="spacingAndGlyphs" textLength="104" x="519.5" y="118.1245">expires: DateTime</text><ellipse cx="510.5" cy="127.7188" fill="none" rx="3" ry="3" style="stroke: #038048; stroke-width: 1.0;"/><text fill="#000000" font-family="sans-serif" font-size="11" lengthAdjust="spacingAndGlyphs" textLength="116" x="519.5" y="130.9292">createdAt: DateTime</text><ellipse cx="510.5" cy="140.5234" fill="none" rx="3" ry="3" style="stroke: #038048; stroke-width: 1.0;"/><text fill="#000000" font-family="sans-serif" font-size="11" lengthAdjust="spacingAndGlyphs" textLength="119" x="519.5" y="143.7339">updatedAt: DateTime</text><line style="stroke: #A80036; stroke-width: 1.5;" x1="500.5" x2="652.5" y1="150.3281" y2="150.3281"/><!--MD5=[c6dba07d65773170d5e872f69b4e054b]
link Account to User--><path d="M385.52,192.27 C390.98,212.27 396.7,233.21 402.02,252.7 " fill="none" id="Account-User" style="stroke: #A80036; stroke-width: 1.0; stroke-dasharray: 7.0,7.0;"/><line style="stroke: #A80036; stroke-width: 1.0;" x1="407.0089" x2="399.2898" y1="255.7498" y2="257.8511"/><line style="stroke: #A80036; stroke-width: 1.0;" x1="406.2209" x2="398.5018" y1="252.8551" y2="254.9564"/><line style="stroke: #A80036; stroke-width: 1.0;" x1="402.0987" x2="404.2" y1="252.9409" y2="260.66"/><line style="stroke: #A80036; stroke-width: 1.0;" x1="385.4446" x2="377.5434" y1="191.9855" y2="185.856"/><line style="stroke: #A80036; stroke-width: 1.0;" x1="385.4446" x2="389.1166" y1="191.9855" y2="182.684"/><line style="stroke: #A80036; stroke-width: 1.0;" x1="385.4446" x2="383.33" y1="191.9855" y2="184.27"/><line style="stroke: #A80036; stroke-width: 1.0;" x1="382.1155" x2="389.831" y1="194.9716" y2="192.857"/><text fill="#000000" font-family="sans-serif" font-size="13" lengthAdjust="spacingAndGlyphs" textLength="23" x="397.5" y="227.0669">has</text><!--MD5=[87e802f94dff5db0b14b612664619da8]
link User to Account--><path d="M371.52,260.94 C366.62,251.23 362.41,241.13 359.5,231 C355.24,216.13 353.19,199.94 352.49,184.13 " fill="none" id="User-Account" style="stroke: #A80036; stroke-width: 1.0;"/><text fill="#000000" font-family="sans-serif" font-size="13" lengthAdjust="spacingAndGlyphs" textLength="23" x="360.5" y="227.0669">has</text><text fill="#000000" font-family="sans-serif" font-size="13" lengthAdjust="spacingAndGlyphs" textLength="8" x="357.911" y="249.8649">1</text><text fill="#000000" font-family="sans-serif" font-size="13" lengthAdjust="spacingAndGlyphs" textLength="23" x="327.9571" y="204.1198">0..*</text><!--MD5=[f205aee3284cdd9814e4079314e77301]
link Session to User--><path d="M119.14,481.2 C129.49,466.46 141.68,452.13 155.5,441 C207,399.54 276.93,373.18 332.59,357.37 " fill="none" id="Session-User" style="stroke: #A80036; stroke-width: 1.0; stroke-dasharray: 7.0,7.0;"/><line style="stroke: #A80036; stroke-width: 1.0;" x1="335.4106" x2="337.565" y1="352.435" y2="360.1394"/><line style="stroke: #A80036; stroke-width: 1.0;" x1="332.5214" x2="334.6758" y1="353.2429" y2="360.9473"/><line style="stroke: #A80036; stroke-width: 1.0;" x1="332.6355" x2="340.34" y1="357.3644" y2="355.21"/><line style="stroke: #A80036; stroke-width: 1.0;" x1="119.02" x2="119.4808" y1="481.3757" y2="491.365"/><line style="stroke: #A80036; stroke-width: 1.0;" x1="119.02" x2="109.5592" y1="481.3757" y2="484.615"/><line style="stroke: #A80036; stroke-width: 1.0;" x1="119.02" x2="114.52" y1="481.3757" y2="487.99"/><line style="stroke: #A80036; stroke-width: 1.0;" x1="123.4522" x2="116.8379" y1="481.9721" y2="477.472"/><text fill="#000000" font-family="sans-serif" font-size="13" lengthAdjust="spacingAndGlyphs" textLength="23" x="156.5" y="454.0669">has</text><!--MD5=[db6fca201a91eaa11ccab8113827eb71]
link User to Session--><path d="M340.32,342.21 C268.12,351.25 166.5,375.64 106.5,441 C94.71,453.84 87.77,470.83 83.77,487.8 " fill="none" id="User-Session" style="stroke: #A80036; stroke-width: 1.0;"/><text fill="#000000" font-family="sans-serif" font-size="13" lengthAdjust="spacingAndGlyphs" textLength="23" x="107.5" y="454.0669">has</text><text fill="#000000" font-family="sans-serif" font-size="13" lengthAdjust="spacingAndGlyphs" textLength="8" x="324.4665" y="339.1484">1</text><text fill="#000000" font-family="sans-serif" font-size="13" lengthAdjust="spacingAndGlyphs" textLength="23" x="60.0244" y="476.983">0..*</text><!--MD5=[ed8c1e154f357ad19e7b13adade3b634]
link User to Anime--><path d="M508.82,372.39 C540.54,389.23 574.65,412.08 598.5,441 C659.21,514.62 647.45,633.5 633.45,702.86 " fill="none" id="User-Anime" style="stroke: #A80036; stroke-width: 1.0;"/><text fill="#000000" font-family="sans-serif" font-size="13" lengthAdjust="spacingAndGlyphs" textLength="45" x="645.5" y="561.5669">wishlist</text><text fill="#000000" font-family="sans-serif" font-size="13" lengthAdjust="spacingAndGlyphs" textLength="8" x="516.41" y="371.9265">1</text><text fill="#000000" font-family="sans-serif" font-size="13" lengthAdjust="spacingAndGlyphs" textLength="23" x="610.7639" y="691.78">0..*</text><!--MD5=[ed8c1e154f357ad19e7b13adade3b634]
link User to Anime--><path d="M508.79,356.66 C574.72,377.11 661.39,416.5 699.5,488 C728.35,542.12 716,566.93 699.5,626 C691.93,653.1 677.11,680.17 662.26,702.69 " fill="none" id="User-Anime-1" style="stroke: #A80036; stroke-width: 1.0;"/><text fill="#000000" font-family="sans-serif" font-size="13" lengthAdjust="spacingAndGlyphs" textLength="101" x="717.5" y="561.5669">watchedAnimes</text><text fill="#000000" font-family="sans-serif" font-size="13" lengthAdjust="spacingAndGlyphs" textLength="8" x="516.3774" y="354.8447">1</text><text fill="#000000" font-family="sans-serif" font-size="13" lengthAdjust="spacingAndGlyphs" textLength="23" x="643.0698" y="691.9867">0..*</text><!--MD5=[ed8c1e154f357ad19e7b13adade3b634]
link User to Anime--><path d="M508.85,341.65 C604.33,351.95 755.88,384.69 827.5,488 C862.44,538.41 857.05,572.25 827.5,626 C800.04,675.94 744.82,709.65 698.17,730.5 " fill="none" id="User-Anime-2" style="stroke: #A80036; stroke-width: 1.0;"/><text fill="#000000" font-family="sans-serif" font-size="13" lengthAdjust="spacingAndGlyphs" textLength="77" x="852.5" y="561.5669">likedAnimes</text><text fill="#000000" font-family="sans-serif" font-size="13" lengthAdjust="spacingAndGlyphs" textLength="8" x="516.4426" y="338.5448">1</text><text fill="#000000" font-family="sans-serif" font-size="13" lengthAdjust="spacingAndGlyphs" textLength="23" x="705.919" y="724.4778">0..*</text><!--MD5=[ed8c1e154f357ad19e7b13adade3b634]
link User to Anime--><path d="M389.34,411.2 C365.66,472.77 345.11,560.54 383.5,626 C417.22,683.5 486.15,717.83 540.84,736.99 " fill="none" id="User-Anime-3" style="stroke: #A80036; stroke-width: 1.0;"/><text fill="#000000" font-family="sans-serif" font-size="13" lengthAdjust="spacingAndGlyphs" textLength="95" x="384.5" y="561.5669">dislikedAnimes</text><text fill="#000000" font-family="sans-serif" font-size="13" lengthAdjust="spacingAndGlyphs" textLength="8" x="377.4852" y="431.3927">1</text><text fill="#000000" font-family="sans-serif" font-size="13" lengthAdjust="spacingAndGlyphs" textLength="23" x="510.0919" y="731.5256">0..*</text><!--MD5=[2dd21c5e4d24a00e804d12dd0c7b0d9f]
link User to Comment--><path d="M370.6,411.17 C364.45,420.98 358.58,431.07 353.5,441 C343.38,460.77 341.61,466.38 336.5,488 C302.87,630.15 289.36,801.82 284.29,891.72 " fill="none" id="User-Comment" style="stroke: #A80036; stroke-width: 1.0;"/><text fill="#000000" font-family="sans-serif" font-size="13" lengthAdjust="spacingAndGlyphs" textLength="23" x="307.5" y="669.0669">has</text><text fill="#000000" font-family="sans-serif" font-size="13" lengthAdjust="spacingAndGlyphs" textLength="8" x="356.6291" y="431.7465">1</text><text fill="#000000" font-family="sans-serif" font-size="13" lengthAdjust="spacingAndGlyphs" textLength="23" x="260.3373" y="881.1167">0..*</text><!--MD5=[c97a8161e339f28cae62cf41c8d46539]
link User to Like--><path d="M508.62,348.81 C641.45,369.44 889.75,416.76 938.5,488 C1026.35,616.37 963.86,814.03 927.13,904.84 " fill="none" id="User-Like" style="stroke: #A80036; stroke-width: 1.0;"/><text fill="#000000" font-family="sans-serif" font-size="13" lengthAdjust="spacingAndGlyphs" textLength="23" x="983.5" y="669.0669">has</text><text fill="#000000" font-family="sans-serif" font-size="13" lengthAdjust="spacingAndGlyphs" textLength="8" x="516.3936" y="346.8923">1</text><text fill="#000000" font-family="sans-serif" font-size="13" lengthAdjust="spacingAndGlyphs" textLength="23" x="905.5545" y="893.8627">0..*</text><!--MD5=[fb05a3e5fe0b2273c6a1202f4e2b2bf3]
link User to Dislike--><path d="M381.13,411.26 C376.18,421.09 371.49,431.17 367.5,441 C336.5,517.37 339.87,544.88 354.5,626 C374.37,736.17 379.45,769.5 442.5,862 C453.02,877.43 466.68,892 480.56,904.79 " fill="none" id="User-Dislike" style="stroke: #A80036; stroke-width: 1.0;"/><text fill="#000000" font-family="sans-serif" font-size="13" lengthAdjust="spacingAndGlyphs" textLength="23" x="364.5" y="669.0669">has</text><text fill="#000000" font-family="sans-serif" font-size="13" lengthAdjust="spacingAndGlyphs" textLength="8" x="368.467" y="431.4586">1</text><text fill="#000000" font-family="sans-serif" font-size="13" lengthAdjust="spacingAndGlyphs" textLength="23" x="446.9513" y="893.8057">0..*</text><!--MD5=[6b43c87323e4dbd306cf3f8287d5b2b4]
link User to Genre--><path d="M466.14,411.14 C486.7,447.75 510.58,490.26 527.12,519.72 " fill="none" id="User-Genre" style="stroke: #A80036; stroke-width: 1.0;"/><text fill="#000000" font-family="sans-serif" font-size="13" lengthAdjust="spacingAndGlyphs" textLength="99" x="490.5" y="454.0669">watchedGenres</text><text fill="#000000" font-family="sans-serif" font-size="13" lengthAdjust="spacingAndGlyphs" textLength="8" x="462.0216" y="431.7134">1</text><text fill="#000000" font-family="sans-serif" font-size="13" lengthAdjust="spacingAndGlyphs" textLength="23" x="498.4414" y="508.8571">0..*</text><!--MD5=[25fa80caa1d36b1c5bdceba289b92ea9]
link Anime to Comment--><path d="M540.68,805.12 C484.31,837.4 409,880.51 354.09,911.94 " fill="none" id="Anime-Comment" style="stroke: #A80036; stroke-width: 1.0;"/><text fill="#000000" font-family="sans-serif" font-size="13" lengthAdjust="spacingAndGlyphs" textLength="23" x="471.5" y="858.0669">has</text><text fill="#000000" font-family="sans-serif" font-size="13" lengthAdjust="spacingAndGlyphs" textLength="8" x="525.045" y="805.7522">1</text><text fill="#000000" font-family="sans-serif" font-size="13" lengthAdjust="spacingAndGlyphs" textLength="23" x="362.1048" y="904.2501">0..*</text><!--MD5=[5085649530fc91d3b857f50b977576e3]
link Anime to Like--><path d="M698.03,813.13 C740.69,842 793.04,877.41 834.48,905.45 " fill="none" id="Anime-Like" style="stroke: #A80036; stroke-width: 1.0;"/><text fill="#000000" font-family="sans-serif" font-size="13" lengthAdjust="spacingAndGlyphs" textLength="23" x="763.5" y="858.0669">has</text><text fill="#000000" font-family="sans-serif" font-size="13" lengthAdjust="spacingAndGlyphs" textLength="8" x="705.8961" y="814.6465">1</text><text fill="#000000" font-family="sans-serif" font-size="13" lengthAdjust="spacingAndGlyphs" textLength="23" x="803.6148" y="897.1229">0..*</text><!--MD5=[558b4e1defcc1c426909fdfe33a5429b]
link Anime to Dislike--><path d="M598.11,815.19 C587.15,843.45 573.94,877.55 563.37,904.83 " fill="none" id="Anime-Dislike" style="stroke: #A80036; stroke-width: 1.0;"/><text fill="#000000" font-family="sans-serif" font-size="13" lengthAdjust="spacingAndGlyphs" textLength="23" x="586.5" y="858.0669">has</text><text fill="#000000" font-family="sans-serif" font-size="13" lengthAdjust="spacingAndGlyphs" textLength="8" x="587.0156" y="835.0258">1</text><text fill="#000000" font-family="sans-serif" font-size="13" lengthAdjust="spacingAndGlyphs" textLength="23" x="541.4064" y="893.8513">0..*</text><!--MD5=[362a9834eded5a6f536a92d7c643c59a]
link Anime to Genre--><path d="M549.4,702.82 C541.74,693.71 535.08,683.71 530.5,673 C519.82,648.04 525.06,617.57 532.43,594.26 " fill="none" id="Anime-Genre" style="stroke: #A80036; stroke-width: 1.0;"/><text fill="#000000" font-family="sans-serif" font-size="13" lengthAdjust="spacingAndGlyphs" textLength="44" x="531.5" y="669.0669">genres</text><text fill="#000000" font-family="sans-serif" font-size="13" lengthAdjust="spacingAndGlyphs" textLength="8" x="532.3691" y="692.1326">1</text><text fill="#000000" font-family="sans-serif" font-size="13" lengthAdjust="spacingAndGlyphs" textLength="23" x="505.0293" y="613.7836">0..*</text><!--MD5=[9f174e945c9b08ef37ae319337bf6f61]
link Genre to Anime--><path d="M560.54,594.22 C571.44,624.5 587.16,668.17 599.63,702.8 " fill="none" id="Genre-Anime" style="stroke: #A80036; stroke-width: 1.0;"/><text fill="#000000" font-family="sans-serif" font-size="13" lengthAdjust="spacingAndGlyphs" textLength="23" x="588.5" y="669.0669">has</text><text fill="#000000" font-family="sans-serif" font-size="13" lengthAdjust="spacingAndGlyphs" textLength="8" x="554.0373" y="613.737">1</text><text fill="#000000" font-family="sans-serif" font-size="13" lengthAdjust="spacingAndGlyphs" textLength="23" x="572.8068" y="692.1101">0..*</text><!--MD5=[cb9d16350fd948562ad51aca99d078a0]
link VerificationRequest to User--><path d="M537.16,158.6 C517.19,189.87 492.78,228.08 471.8,260.94 " fill="none" id="VerificationRequest-User" style="stroke: #A80036; stroke-width: 1.0;"/><text fill="#000000" font-family="sans-serif" font-size="13" lengthAdjust="spacingAndGlyphs" textLength="67" x="501.5" y="227.0669">belongs to</text><text fill="#000000" font-family="sans-serif" font-size="13" lengthAdjust="spacingAndGlyphs" textLength="8" x="524.4197" y="178.3507">1</text><text fill="#000000" font-family="sans-serif" font-size="13" lengthAdjust="spacingAndGlyphs" textLength="24" x="451.2748" y="249.8649">0..1</text><!--MD5=[f28a581a53aab4ceab91cf29cf824c00]
@startuml
entity "Account" as Account {
  +id: String
  +userId: String
  +providerType: String
  +providerId: String
  +providerAccountId: String
  +refreshToken: String?
  +accessToken: String?
  +accessTokenExpires: DateTime?
  +createdAt: DateTime
  +updatedAt: DateTime
}

entity "Session" as Session {
  +id: String
  +userId: String
  +expires: DateTime
  +sessionToken: String
  +accessToken: String
  +createdAt: DateTime
  +updatedAt: DateTime
}

entity "User" as User {
  +id: String
  +name: String?
  +email: String?
  +emailVerified: DateTime?
  +image: String?
  +description: String?
  +createdAt: DateTime
  +updatedAt: DateTime
}

entity "Anime" as Anime {
  +id: String
  +title: String
  +description: String?
  +image: String?
  +releaseDate: DateTime
}

entity "Comment" as Comment {
  +id: String
  +content: String
  +createdAt: DateTime
  +updatedAt: DateTime
  +userId: String
  +animeId: String
}

entity "Like" as Like {
  +id: String
  +userId: String
  +animeId: String
  +createdAt: DateTime
}

entity "Dislike" as Dislike {
  +id: String
  +userId: String
  +animeId: String
  +createdAt: DateTime
}

entity "Genre" as Genre {
  +id: String
  +name: String
}

entity "VerificationRequest" as VerificationRequest {
  +id: String
  +identifier: String
  +token: String
  +expires: DateTime
  +createdAt: DateTime
  +updatedAt: DateTime
}

Account }|..|| User: "has"
Session }|..|| User: "has"
User "1" - - "0..*" Account: "has"
User "1" - - "0..*" Session: "has"
User "1" - - "0..*" Anime: "wishlist"
User "1" - - "0..*" Anime: "watchedAnimes"
User "1" - - "0..*" Anime: "likedAnimes"
User "1" - - "0..*" Anime: "dislikedAnimes"
User "1" - - "0..*" Comment: "has"
User "1" - - "0..*" Like: "has"
User "1" - - "0..*" Dislike: "has"
User "1" - - "0..*" Genre: "watchedGenres"

Anime "1" - - "0..*" Comment: "has"
Anime "1" - - "0..*" Like: "has"
Anime "1" - - "0..*" Dislike: "has"
Anime "1" - - "0..*" Genre: "genres"

Genre "1" - - "0..*" Anime: "has"

VerificationRequest "1" - - "0..1" User: "belongs to"
@enduml

PlantUML version 1.2020.08(Sun Apr 26 14:08:22 UTC 2020)
(GPL source distribution)
Java Runtime: OpenJDK Runtime Environment
JVM: OpenJDK 64-Bit Server VM
Java Version: 1.8.0_402-heroku-b06
Operating System: Linux
Default Encoding: UTF-8
Language: en
Country: US
--></g></svg>